<svg width="20" height="20" viewBox="0 0 20 20" fill="none" xmlns="http://www.w3.org/2000/svg">
<rect x="9.00098" y="5" width="2" height="4" fill="#94A3B8"/>
<circle cx="10.001" cy="11" r="1" fill="#94A3B8"/>
<path fill-rule="evenodd" clip-rule="evenodd" d="M16.4 17.8C16.5731 17.9298 16.7836 18 17 18C17.5523 18 18 17.5523 18 17V3C18 2.44772 17.5523 2 17 2H3C2.44772 2 2 2.44772 2 3V14C2 14.5523 2.44772 15 3 15H12.667L16.4 17.8ZM13 13H4V4H16V15L13.6 13.2C13.4269 13.0702 13.2164 13 13 13Z" fill="#94A3B8"/>
</svg>
