<svg width="18" height="16" viewBox="0 0 18 16" fill="none" xmlns="http://www.w3.org/2000/svg">
<path fill-rule="evenodd" clip-rule="evenodd" d="M0.981818 2.05365V14.0602L6.12479 7.8109L0.981818 2.05365ZM6.84961 8.62229L1.76557 14.8H16.5193L11.2722 8.61554L10.2277 9.77942C9.55606 10.5279 8.5505 10.5263 7.88027 9.77605L6.84961 8.62229ZM11.9992 7.80538L17.0182 13.7209V2.21248L11.9992 7.80538ZM16.4695 1.2L9.56621 8.89266C9.27007 9.22266 8.83906 9.2221 8.54341 8.89113L1.67289 1.2H16.4695ZM17.3514 0.217217C17.1636 0.0789947 16.9461 0 16.7143 0H1.28571C0.575634 0 0 0.741046 0 1.65517V14.3448C0 14.6119 0.0491288 14.8642 0.136386 15.0875C0.196655 15.2418 0.275116 15.3823 0.368141 15.5043C0.387655 15.5298 0.407809 15.5546 0.428571 15.5785C0.55193 15.7207 0.696732 15.8326 0.85596 15.9053C0.990343 15.9666 1.135 16 1.28571 16H16.7143C16.9465 16 17.1644 15.9207 17.3525 15.782C17.4047 15.7435 17.4547 15.7004 17.502 15.6531C17.5821 15.573 17.6546 15.4811 17.718 15.3793C17.8207 15.2144 17.8993 15.0237 17.9472 14.8159C17.9815 14.6666 18 14.5085 18 14.3448V1.65517C18 1.48953 17.9811 1.32956 17.9459 1.17866C17.898 0.97298 17.8198 0.784138 17.718 0.62069C17.6697 0.543189 17.6162 0.471399 17.558 0.406229C17.4944 0.334892 17.4252 0.271489 17.3514 0.217217Z" fill="#008BB7"/>
</svg>
