<svg width="32" height="32" viewBox="0 0 32 32" fill="none" xmlns="http://www.w3.org/2000/svg">
<path fill-rule="evenodd" clip-rule="evenodd" d="M6 10C6 9.44772 6.44772 9 7 9L25 9C25.5523 9 26 9.44772 26 10C26 10.5523 25.5523 11 25 11L7 11C6.44772 11 6 10.5523 6 10Z" fill="#333333"/>
<path fill-rule="evenodd" clip-rule="evenodd" d="M6 16C6 15.4477 6.44772 15 7 15L25 15C25.5523 15 26 15.4477 26 16C26 16.5523 25.5523 17 25 17L7 17C6.44772 17 6 16.5523 6 16Z" fill="#333333"/>
<path fill-rule="evenodd" clip-rule="evenodd" d="M6 22C6 21.4477 6.44772 21 7 21L25 21C25.5523 21 26 21.4477 26 22C26 22.5523 25.5523 23 25 23L7 23C6.44772 23 6 22.5523 6 22Z" fill="#333333"/>
</svg>
