<svg width="18" height="18" viewBox="0 0 18 18" fill="none" xmlns="http://www.w3.org/2000/svg">
<path fill-rule="evenodd" clip-rule="evenodd" d="M13.1625 0.3375C12.7125 -0.1125 12.0375 -0.1125 11.5875 0.3375L0.3375 11.5875C0.1125 11.8125 0 12.0375 0 12.375V16.875C0 17.55 0.45 18 1.125 18H5.625C5.9625 18 6.1875 17.8875 6.4125 17.6625L17.6625 6.4125C18.1125 5.9625 18.1125 5.2875 17.6625 4.8375L13.1625 0.3375ZM5.175 15.7496H2.25V12.8246L9 6.07456L11.925 8.99956L5.175 15.7496ZM10.5746 4.49962L13.4996 7.42462L15.2996 5.62462L12.3746 2.69962L10.5746 4.49962Z" fill="#64748B"/>
</svg>
