<svg width="24" height="24" viewBox="0 0 24 24" fill="none" xmlns="http://www.w3.org/2000/svg">
<path fill-rule="evenodd" clip-rule="evenodd" d="M17.1733 13.8323C15.7801 13.3607 14.9533 12.8423 14.6017 12.4223C15.9217 11.5667 16.8001 10.0871 16.8001 8.3999V7.1999C16.8001 4.5527 14.6473 2.3999 12.0001 2.3999C9.3529 2.3999 7.2001 4.5527 7.2001 7.1999V8.3999C7.2001 10.0871 8.0785 11.5667 9.3985 12.4223C9.0481 12.8423 8.2213 13.3607 6.8281 13.8323C4.8973 14.4839 3.6001 16.2839 3.6001 18.3119V21.5999H20.4001V18.3119C20.4001 16.2839 19.1029 14.4839 17.1733 13.8323ZM9.6001 7.19988C9.6001 5.87628 10.6765 4.79988 12.0001 4.79988C13.3237 4.79988 14.4001 5.87628 14.4001 7.19988V8.39988C14.4001 9.72348 13.3237 10.7999 12.0001 10.7999C10.6765 10.7999 9.6001 9.72348 9.6001 8.39988V7.19988ZM6.00012 19.1999H18.0001V18.3119C18.0001 17.3147 17.3593 16.4279 16.4053 16.1063C14.1901 15.3575 12.8041 14.3831 12.2617 13.1999H11.7385C11.1961 14.3831 9.81012 15.3575 7.59612 16.1063C6.64092 16.4291 6.00012 17.3147 6.00012 18.3119V19.1999Z" fill="#8FBDBD"/>
</svg>
