<svg width="20" height="20" viewBox="0 0 20 20" fill="none" xmlns="http://www.w3.org/2000/svg">
<g clip-path="url(#clip0_25_2083)">
<path d="M17 19H3.00001C2.19864 19 1.44527 18.6879 0.878645 18.1213C0.312062 17.5547 0 16.8013 0 16V4.00001C0 3.19868 0.312062 2.4453 0.878683 1.87868C1.4453 1.3121 2.19868 1 3.00001 1H17C17.8013 1 18.5547 1.31206 19.1213 1.87865C19.6879 2.44519 20 3.19856 20 4.00001V16C20 16.8014 19.6879 17.5548 19.1213 18.1214C18.5546 18.6879 17.8013 19 17 19ZM3.00001 3.00003C2.73287 3.00003 2.48176 3.10405 2.29289 3.29292C2.10401 3.4818 1.99999 3.73291 1.99999 4.00005V16C1.99999 16.2671 2.10401 16.5183 2.29289 16.7072C2.48172 16.896 2.73283 17.0001 2.99997 17.0001H17C17.2671 17.0001 17.5182 16.896 17.707 16.7072C17.896 16.5183 17.9999 16.2672 17.9999 16V4.00001C17.9999 3.73287 17.896 3.48176 17.7072 3.29296C17.5182 3.10405 17.2671 3.00003 17 3.00003H3.00001ZM14 14H11C10.4477 14 10 13.5523 10 13C10 12.4477 10.4477 12 11 12H14C14.5523 12 15 12.4478 15 13C15 13.5523 14.5523 14 14 14ZM6.00002 14C5.74409 14 5.48817 13.9024 5.29289 13.7071C4.90238 13.3166 4.90238 12.6834 5.29289 12.2929L7.58578 9.99998L5.29289 7.7071C4.90238 7.31659 4.90238 6.68341 5.29289 6.29289C5.68341 5.90238 6.31659 5.90238 6.7071 6.29289L9.70711 9.2929C10.0976 9.68342 10.0976 10.3166 9.70711 10.7071L6.7071 13.7071C6.51186 13.9024 6.25594 14 6.00002 14Z" fill="currentColor"/>
</g>
<defs>
<clipPath id="clip0_25_2083">
<rect width="20" height="20" fill="white"/>
</clipPath>
</defs>
</svg>
